<svg width="100" height="100" viewBox="0 0 100 100" fill="none" xmlns="http://www.w3.org/2000/svg">
<rect width="100" height="100" fill="white"/>
<path d="M44.9314 35.0896L44.6956 34.648M44.6956 34.648C40.8396 28.2438 38.9074 24.5569 35.7337 17.8661C35.786 15.9876 35.3454 15.3086 33.3402 15.1236C34.2183 13.5326 34.1183 12.8691 32.0644 12.4084L31.2411 9.48055C27.7288 8.64031 26.1773 9.18064 24.4531 12.67L26.1814 15.1726C25.5865 16.8734 25.9304 17.43 27.4572 17.8878C26.6057 19.768 26.8801 20.4899 28.0406 21.4808C31.7995 28.1285 33.5822 32.0084 36.3333 39.1297C36.7009 44.1099 36.9107 46.903 37.3637 51.9042C37.9159 56.8596 38.4573 59.5064 39.7516 64.0408C43.1699 73.5769 45.8317 78.4842 51.9535 86.4821L54.5324 90.7949C58.5261 92.7623 61.2641 92.6988 67.067 90.4296C72.1783 87.7506 74.309 85.912 75.5616 81.4663C75.5616 81.4663 75.3002 79.1404 74.0473 76.6534C72.7943 74.1664 70.7323 62.488 62.3524 51.764C59.6644 48.462 58.6157 47.3751 54.1714 43.4543C50.4613 39.9204 48.6648 38.2723 44.6956 34.648Z" stroke="black"/>
<path d="M55.492 88.1342C63.557 87.8507 67.2713 85.9733 72.6883 80.0542M25.8107 12.0321L36.0171 33.7538L40.5424 31.6275L29.8835 10.1184C27.7076 9.36838 26.7662 9.66056 25.8107 12.0321ZM44.277 61.9145C49.948 59.7499 53.0129 58.2925 58.3055 55.3228L69.6024 78.1895C64.5176 82.0607 61.3401 83.5362 55.1213 84.9937L44.277 61.9145Z" stroke="#6D4C19"/>
</svg>
